<svg id="visual" viewBox="0 0 960 540" width="960" height="540" xmlns="http://www.w3.org/2000/svg" xmlns:xlink="http://www.w3.org/1999/xlink" version="1.1"><path d="M0 87L14.5 86.2C29 85.3 58 83.7 87.2 95.5C116.3 107.3 145.7 132.7 174.8 135.3C204 138 233 118 262 108C291 98 320 98 349 115.2C378 132.3 407 166.7 436.2 175.7C465.3 184.7 494.7 168.3 523.8 178.2C553 188 582 224 611 224C640 224 669 188 698 159.2C727 130.3 756 108.7 785.2 113.2C814.3 117.7 843.7 148.3 872.8 153.8C902 159.3 931 139.7 945.5 129.8L960 120L960 0L945.5 0C931 0 902 0 872.8 0C843.7 0 814.3 0 785.2 0C756 0 727 0 698 0C669 0 640 0 611 0C582 0 553 0 523.8 0C494.7 0 465.3 0 436.2 0C407 0 378 0 349 0C320 0 291 0 262 0C233 0 204 0 174.8 0C145.7 0 116.3 0 87.2 0C58 0 29 0 14.5 0L0 0Z" fill="#76ffb1"></path><path d="M0 147L14.5 153.3C29 159.7 58 172.3 87.2 193.8C116.3 215.3 145.7 245.7 174.8 243.8C204 242 233 208 262 192.8C291 177.7 320 181.3 349 195.7C378 210 407 235 436.2 244.8C465.3 254.7 494.7 249.3 523.8 259.3C553 269.3 582 294.7 611 297.3C640 300 669 280 698 253.8C727 227.7 756 195.3 785.2 195.3C814.3 195.3 843.7 227.7 872.8 238.5C902 249.3 931 238.7 945.5 233.3L960 228L960 118L945.5 127.8C931 137.7 902 157.3 872.8 151.8C843.7 146.3 814.3 115.7 785.2 111.2C756 106.7 727 128.3 698 157.2C669 186 640 222 611 222C582 222 553 186 523.8 176.2C494.7 166.3 465.3 182.7 436.2 173.7C407 164.7 378 130.3 349 113.2C320 96 291 96 262 106C233 116 204 136 174.8 133.3C145.7 130.7 116.3 105.3 87.2 93.5C58 81.7 29 83.3 14.5 84.2L0 85Z" fill="#51ff9b"></path><path d="M0 222L14.5 225.7C29 229.3 58 236.7 87.2 253C116.3 269.3 145.7 294.7 174.8 295.5C204 296.3 233 272.7 262 262.7C291 252.7 320 256.3 349 266.3C378 276.3 407 292.7 436.2 301.7C465.3 310.7 494.7 312.3 523.8 324.8C553 337.3 582 360.7 611 366.2C640 371.7 669 359.3 698 331.5C727 303.7 756 260.3 785.2 257.5C814.3 254.7 843.7 292.3 872.8 302.2C902 312 931 294 945.5 285L960 276L960 226L945.5 231.3C931 236.7 902 247.3 872.8 236.5C843.7 225.7 814.3 193.3 785.2 193.3C756 193.3 727 225.7 698 251.8C669 278 640 298 611 295.3C582 292.7 553 267.3 523.8 257.3C494.7 247.3 465.3 252.7 436.2 242.8C407 233 378 208 349 193.7C320 179.3 291 175.7 262 190.8C233 206 204 240 174.8 241.8C145.7 243.7 116.3 213.3 87.2 191.8C58 170.3 29 157.7 14.5 151.3L0 145Z" fill="#00ff83"></path><path d="M0 422L14.5 427.5C29 433 58 444 87.2 454C116.3 464 145.7 473 174.8 465.7C204 458.3 233 434.7 262 435.5C291 436.3 320 461.7 349 464.5C378 467.3 407 447.7 436.2 438.7C465.3 429.7 494.7 431.3 523.8 440.3C553 449.3 582 465.7 611 466.5C640 467.3 669 452.7 698 440C727 427.3 756 416.7 785.2 422.2C814.3 427.7 843.7 449.3 872.8 461C902 472.7 931 474.3 945.5 475.2L960 476L960 274L945.5 283C931 292 902 310 872.8 300.2C843.7 290.3 814.3 252.7 785.2 255.5C756 258.3 727 301.7 698 329.5C669 357.3 640 369.7 611 364.2C582 358.7 553 335.3 523.8 322.8C494.7 310.3 465.3 308.7 436.2 299.7C407 290.7 378 274.3 349 264.3C320 254.3 291 250.7 262 260.7C233 270.7 204 294.3 174.8 293.5C145.7 292.7 116.3 267.3 87.2 251C58 234.7 29 227.3 14.5 223.7L0 220Z" fill="#00dd72"></path><path d="M0 541L14.5 541C29 541 58 541 87.2 541C116.3 541 145.7 541 174.8 541C204 541 233 541 262 541C291 541 320 541 349 541C378 541 407 541 436.2 541C465.3 541 494.7 541 523.8 541C553 541 582 541 611 541C640 541 669 541 698 541C727 541 756 541 785.2 541C814.3 541 843.7 541 872.8 541C902 541 931 541 945.5 541L960 541L960 474L945.5 473.2C931 472.3 902 470.7 872.8 459C843.7 447.3 814.3 425.7 785.2 420.2C756 414.7 727 425.3 698 438C669 450.7 640 465.3 611 464.5C582 463.7 553 447.3 523.8 438.3C494.7 429.3 465.3 427.7 436.2 436.7C407 445.7 378 465.3 349 462.5C320 459.7 291 434.3 262 433.5C233 432.7 204 456.3 174.8 463.7C145.7 471 116.3 462 87.2 452C58 442 29 431 14.5 425.5L0 420Z" fill="#00bb62"></path></svg>